<svg width="50" height="54" viewBox="0 0 50 54" fill="none" xmlns="http://www.w3.org/2000/svg">
<g clip-path="url(#clip0_1220_2477)">
<path d="M21.8215 5.0199L45.4783 28.5787L25.1054 48.9801L4.67173 28.5787L14.5237 18.4387H10.4491L0.475525 28.5787L25.1054 53.1697L49.6745 28.5787L21.9431 0.830322L21.8215 5.0199Z" fill="#F57E20"/>
<path d="M21.943 18.4994L17.686 18.4387L7.77321 28.5787L25.1054 45.8227L42.3767 28.5787L21.943 8.11652L21.8822 12.1239L38.363 28.5787L25.1054 41.876L11.9086 28.5787L21.943 18.4994Z" fill="#F57E20"/>
<path d="M25.0446 22.6283L31.0652 28.5787L25.0446 34.5291L19.0239 28.5787L25.0446 22.6283ZM35.1398 28.5787L25.0446 18.4995L14.9494 28.5787L25.0446 38.658L35.1398 28.5787Z" fill="#F57E20"/>
</g>
<defs>
<clipPath id="clip0_1220_2477">
<rect width="49.199" height="52.3394" fill="white" transform="translate(0.475525 0.830322)"/>
</clipPath>
</defs>
</svg>
