<svg width="154" height="48" viewBox="0 0 154 48" fill="none" xmlns="http://www.w3.org/2000/svg">
<g clip-path="url(#clip0_1220_2483)">
<path d="M81.4098 12.0601C81.4098 13.7898 80.0219 15.1832 78.299 15.1832C76.5762 15.1832 75.1883 13.7898 75.1883 12.0601C75.1883 10.3303 76.5283 8.93694 78.299 8.93694C80.0698 8.98498 81.4098 10.3784 81.4098 12.0601ZM68.584 18.3544C68.584 18.6426 68.584 19.1231 68.584 19.1231C68.584 19.1231 67.1004 17.2012 63.9418 17.2012C58.7254 17.2012 54.6575 21.1892 54.6575 26.7147C54.6575 32.1922 58.6775 36.2282 63.9418 36.2282C67.1483 36.2282 68.584 34.2583 68.584 34.2583V35.0751C68.584 35.4595 68.8711 35.7477 69.254 35.7477H73.1304V17.6817C73.1304 17.6817 69.589 17.6817 69.254 17.6817C68.8711 17.6817 68.584 18.018 68.584 18.3544ZM68.584 29.9339C67.8661 30.991 66.4304 31.9039 64.7076 31.9039C61.6447 31.9039 59.2997 29.982 59.2997 26.7147C59.2997 23.4474 61.6447 21.5255 64.7076 21.5255C66.3826 21.5255 67.914 22.4865 68.584 23.4955V29.9339ZM76.0019 17.6817H80.5962V35.7477H76.0019V17.6817ZM144.629 17.2012C141.471 17.2012 139.987 19.1231 139.987 19.1231V8.98499H135.393V35.7477C135.393 35.7477 138.934 35.7477 139.269 35.7477C139.652 35.7477 139.939 35.4114 139.939 35.0751V34.2583C139.939 34.2583 141.423 36.2282 144.582 36.2282C149.798 36.2282 153.866 32.1922 153.866 26.7147C153.866 21.2372 149.798 17.2012 144.629 17.2012ZM143.864 31.8559C142.093 31.8559 140.705 30.9429 139.987 29.8859V23.4474C140.705 22.4865 142.237 21.4775 143.864 21.4775C146.927 21.4775 149.272 23.3994 149.272 26.6667C149.272 29.9339 146.927 31.8559 143.864 31.8559ZM133 25.033V35.7958H128.406V25.5616C128.406 22.5826 127.449 21.3814 124.864 21.3814C123.476 21.3814 122.041 22.1021 121.131 23.1592V35.7477H116.537V17.6817H120.174C120.557 17.6817 120.844 18.018 120.844 18.3544V19.1231C122.184 17.7297 123.955 17.2012 125.726 17.2012C127.736 17.2012 129.411 17.7778 130.751 18.9309C132.378 20.2763 133 22.006 133 25.033ZM105.386 17.2012C102.228 17.2012 100.744 19.1231 100.744 19.1231V8.98499H96.1498V35.7477C96.1498 35.7477 99.6913 35.7477 100.026 35.7477C100.409 35.7477 100.696 35.4114 100.696 35.0751V34.2583C100.696 34.2583 102.18 36.2282 105.338 36.2282C110.555 36.2282 114.623 32.1922 114.623 26.7147C114.671 21.2372 110.603 17.2012 105.386 17.2012ZM104.621 31.8559C102.85 31.8559 101.462 30.9429 100.744 29.8859V23.4474C101.462 22.4865 102.993 21.4775 104.621 21.4775C107.683 21.4775 110.028 23.3994 110.028 26.6667C110.028 29.9339 107.683 31.8559 104.621 31.8559ZM92.1777 17.2012C93.5656 17.2012 94.2834 17.4414 94.2834 17.4414V21.7177C94.2834 21.7177 90.4548 20.4204 88.062 23.1592V35.7958H83.4676V17.6817C83.4676 17.6817 87.0091 17.6817 87.3441 17.6817C87.727 17.6817 88.0141 18.018 88.0141 18.3544V19.1231C88.8755 18.1141 90.742 17.2012 92.1777 17.2012ZM44.4639 34.1141C44.2246 33.5375 43.9853 32.9129 43.746 32.3844C43.3632 31.5195 42.9803 30.7027 42.6453 29.9339L42.5974 29.8859C39.2953 22.6787 35.7538 15.3754 32.021 8.16817L31.8774 7.87988C31.4945 7.15916 31.1117 6.39039 30.7288 5.62162C30.2502 4.75676 29.7717 3.84384 29.0059 2.97898C27.4745 1.05706 25.2731 0 22.9281 0C20.5352 0 18.3816 1.05706 16.8023 2.88288C16.0844 3.74775 15.558 4.66066 15.0794 5.52553C14.6966 6.29429 14.3137 7.06306 13.9309 7.78378L13.7873 8.07207C10.1023 15.2793 6.51297 22.5826 3.21081 29.7898L3.16295 29.8859C2.82795 30.6547 2.44509 31.4715 2.06223 32.3363C1.82295 32.8649 1.58366 33.4414 1.34437 34.0661C0.722225 35.8438 0.530796 37.5255 0.770083 39.2553C1.29651 42.8589 3.68938 45.8859 6.99154 47.2312C8.23583 47.7598 9.52798 48 10.868 48C11.2508 48 11.7294 47.952 12.1123 47.9039C13.6916 47.7117 15.3187 47.1832 16.898 46.2703C18.8602 45.1652 20.7266 43.5796 22.8323 41.2733C24.9381 43.5796 26.8524 45.1652 28.7667 46.2703C30.3459 47.1832 31.9731 47.7117 33.5524 47.9039C33.9352 47.952 34.4138 48 34.7967 48C36.1367 48 37.4767 47.7598 38.6731 47.2312C42.0231 45.8859 44.3682 42.8108 44.8946 39.2553C45.2775 37.5736 45.086 35.8919 44.4639 34.1141ZM22.8802 36.6126C20.2959 33.3453 18.6209 30.2703 18.0466 27.6757C17.8073 26.5706 17.7595 25.6096 17.903 24.7447C17.9987 23.976 18.2859 23.3033 18.6687 22.7267C19.578 21.4294 21.1095 20.6126 22.8802 20.6126C24.6509 20.6126 26.2302 21.3814 27.0916 22.7267C27.4745 23.3033 27.7616 23.976 27.8574 24.7447C28.0009 25.6096 27.9531 26.6186 27.7138 27.6757C27.1395 30.2222 25.4645 33.2973 22.8802 36.6126ZM41.9753 38.8709C41.6403 41.3694 39.9653 43.5315 37.6203 44.4925C36.4717 44.973 35.2274 45.1171 33.9831 44.973C32.7867 44.8288 31.5902 44.4444 30.3459 43.7237C28.6231 42.7628 26.9002 41.2733 24.8902 39.0631C28.0488 35.1712 29.9631 31.6156 30.681 28.4444C31.016 26.955 31.0638 25.6096 30.9202 24.3604C30.7288 23.1592 30.2981 22.0541 29.6281 21.0931C28.1445 18.9309 25.6559 17.6817 22.8802 17.6817C20.1045 17.6817 17.6159 18.979 16.1323 21.0931C15.4623 22.0541 15.0316 23.1592 14.8402 24.3604C14.6487 25.6096 14.6966 27.003 15.0794 28.4444C15.7973 31.6156 17.7595 35.2192 20.8702 39.1111C18.908 41.3213 17.1373 42.8108 15.4144 43.7718C14.1701 44.4925 12.9737 44.8769 11.7773 45.021C10.4851 45.1652 9.24084 44.973 8.14012 44.5405C5.79511 43.5796 4.1201 41.4174 3.7851 38.9189C3.64153 37.7177 3.73724 36.5165 4.21581 35.1712C4.35939 34.6907 4.59867 34.2102 4.83796 33.6336C5.17296 32.8649 5.55582 32.048 5.93868 31.2312L5.98654 31.1351C9.2887 23.976 12.8301 16.6727 16.5152 9.56156L16.6587 9.27327C17.0416 8.55255 17.4245 7.78378 17.8073 7.06306C18.1902 6.29429 18.6209 5.57357 19.1473 4.94895C20.1523 3.7958 21.4923 3.17117 22.9759 3.17117C24.4595 3.17117 25.7995 3.7958 26.8045 4.94895C27.3309 5.57357 27.7617 6.29429 28.1445 7.06306C28.5274 7.78378 28.9102 8.55255 29.2931 9.27327L29.4367 9.56156C33.0738 16.7207 36.6153 24.024 39.9174 31.1832V31.2312C40.3003 32 40.6353 32.8649 41.0181 33.6336C41.2574 34.2102 41.4967 34.6907 41.6403 35.1712C42.0231 36.4204 42.1667 37.6216 41.9753 38.8709Z" fill="#FF385C"/>
</g>
<defs>
<clipPath id="clip0_1220_2483">
<rect width="153.191" height="48" fill="white" transform="translate(0.674561)"/>
</clipPath>
</defs>
</svg>
