<svg width="78" height="77" viewBox="0 0 78 77" fill="none" xmlns="http://www.w3.org/2000/svg">
<path d="M53.456 64.9687C53.456 65.6069 53.2025 66.2189 52.7513 66.6702C52.3 67.1214 51.688 67.375 51.0498 67.375H7.73727C7.0991 67.375 6.48706 67.1214 6.0358 66.6702C5.58454 66.2189 5.33102 65.6069 5.33102 64.9687C5.33102 64.3305 5.58454 63.7185 6.0358 63.2672C6.48706 62.816 7.0991 62.5625 7.73727 62.5625H51.0498C51.688 62.5625 52.3 62.816 52.7513 63.2672C53.2025 63.7185 53.456 64.3305 53.456 64.9687ZM74.604 26.0957L68.9974 18.9101L68.9613 18.865C67.1483 16.6317 64.592 15.1256 61.7599 14.622C58.9279 14.1183 56.0091 14.6507 53.5372 16.1218L38.0259 25.3799L21.8018 19.4124C21.2596 19.2102 20.6627 19.2102 20.1204 19.4124L17.9638 20.2335L17.8676 20.2726C17.1298 20.5893 16.483 21.0856 15.986 21.7162C15.489 22.3468 15.1578 23.0917 15.0223 23.8831C14.8869 24.6745 14.9516 25.4872 15.2106 26.2472C15.4696 27.0072 15.9146 27.6903 16.505 28.2343L23.0771 34.6079L17.0104 38.2774L8.51028 35.4079C7.90869 35.2052 7.25138 35.2485 6.68153 35.5282L5.77919 35.9704C5.05727 36.293 4.42595 36.7885 3.94108 37.4131C3.45621 38.0377 3.13271 38.7722 2.9992 39.5516C2.86569 40.3309 2.92627 41.1312 3.17559 41.8816C3.42492 42.632 3.8553 43.3094 4.42868 43.8539L15.2568 54.4624L15.2929 54.4985C17.5109 56.5949 20.4462 57.7645 23.4982 57.768C25.6408 57.7645 27.7439 57.1915 29.592 56.1077L73.9302 29.6389C74.2228 29.4641 74.4749 29.2291 74.6698 28.9495C74.8647 28.6699 74.998 28.3521 75.0608 28.0171C75.1237 27.6821 75.1147 27.3376 75.0343 27.0064C74.954 26.6751 74.8042 26.3647 74.5949 26.0957H74.604Z" fill="#FFF8FD"/>
</svg>
