<svg width="78" height="78" viewBox="0 0 78 78" fill="none" xmlns="http://www.w3.org/2000/svg">
<path d="M72.7802 62.7847H70.3739V26.6909C70.3739 26.0527 70.1204 25.4407 69.6691 24.9894C69.2179 24.5382 68.6058 24.2847 67.9677 24.2847H48.7177C48.0795 24.2847 47.4674 24.5382 47.0162 24.9894C46.5649 25.4407 46.3114 26.0527 46.3114 26.6909V38.7222H31.8739V12.2534C31.8739 11.6152 31.6204 11.0032 31.1691 10.5519C30.7179 10.1007 30.1058 9.84717 29.4677 9.84717H10.2177C9.57947 9.84717 8.96743 10.1007 8.51618 10.5519C8.06492 11.0032 7.8114 11.6152 7.8114 12.2534V62.7847H5.40515C4.76697 62.7847 4.15494 63.0382 3.70368 63.4894C3.25242 63.9407 2.9989 64.5527 2.9989 65.1909C2.9989 65.8291 3.25242 66.4411 3.70368 66.8924C4.15494 67.3437 4.76697 67.5972 5.40515 67.5972H72.7802C73.4183 67.5972 74.0304 67.3437 74.4816 66.8924C74.9329 66.4411 75.1864 65.8291 75.1864 65.1909C75.1864 64.5527 74.9329 63.9407 74.4816 63.4894C74.0304 63.0382 73.4183 62.7847 72.7802 62.7847ZM22.2489 55.5659C22.2489 56.2041 21.9954 56.8161 21.5441 57.2674C21.0929 57.7187 20.4808 57.9722 19.8427 57.9722C19.2045 57.9722 18.5924 57.7187 18.1412 57.2674C17.6899 56.8161 17.4364 56.2041 17.4364 55.5659V50.7534C17.4364 50.1152 17.6899 49.5032 18.1412 49.0519C18.5924 48.6007 19.2045 48.3472 19.8427 48.3472C20.4808 48.3472 21.0929 48.6007 21.5441 49.0519C21.9954 49.5032 22.2489 50.1152 22.2489 50.7534V55.5659ZM22.2489 41.1284C22.2489 41.7666 21.9954 42.3786 21.5441 42.8299C21.0929 43.2812 20.4808 43.5347 19.8427 43.5347C19.2045 43.5347 18.5924 43.2812 18.1412 42.8299C17.6899 42.3786 17.4364 41.7666 17.4364 41.1284V36.3159C17.4364 35.6777 17.6899 35.0657 18.1412 34.6144C18.5924 34.1632 19.2045 33.9097 19.8427 33.9097C20.4808 33.9097 21.0929 34.1632 21.5441 34.6144C21.9954 35.0657 22.2489 35.6777 22.2489 36.3159V41.1284ZM22.2489 26.6909C22.2489 27.3291 21.9954 27.9411 21.5441 28.3924C21.0929 28.8437 20.4808 29.0972 19.8427 29.0972C19.2045 29.0972 18.5924 28.8437 18.1412 28.3924C17.6899 27.9411 17.4364 27.3291 17.4364 26.6909V21.8784C17.4364 21.2402 17.6899 20.6282 18.1412 20.1769C18.5924 19.7257 19.2045 19.4722 19.8427 19.4722C20.4808 19.4722 21.0929 19.7257 21.5441 20.1769C21.9954 20.6282 22.2489 21.2402 22.2489 21.8784V26.6909ZM41.4989 55.5659C41.4989 56.2041 41.2454 56.8161 40.7941 57.2674C40.3429 57.7187 39.7308 57.9722 39.0927 57.9722C38.4545 57.9722 37.8424 57.7187 37.3912 57.2674C36.9399 56.8161 36.6864 56.2041 36.6864 55.5659V50.7534C36.6864 50.1152 36.9399 49.5032 37.3912 49.0519C37.8424 48.6007 38.4545 48.3472 39.0927 48.3472C39.7308 48.3472 40.3429 48.6007 40.7941 49.0519C41.2454 49.5032 41.4989 50.1152 41.4989 50.7534V55.5659ZM60.7489 55.5659C60.7489 56.2041 60.4954 56.8161 60.0441 57.2674C59.5929 57.7187 58.9808 57.9722 58.3427 57.9722C57.7045 57.9722 57.0924 57.7187 56.6412 57.2674C56.1899 56.8161 55.9364 56.2041 55.9364 55.5659V50.7534C55.9364 50.1152 56.1899 49.5032 56.6412 49.0519C57.0924 48.6007 57.7045 48.3472 58.3427 48.3472C58.9808 48.3472 59.5929 48.6007 60.0441 49.0519C60.4954 49.5032 60.7489 50.1152 60.7489 50.7534V55.5659ZM60.7489 41.1284C60.7489 41.7666 60.4954 42.3786 60.0441 42.8299C59.5929 43.2812 58.9808 43.5347 58.3427 43.5347C57.7045 43.5347 57.0924 43.2812 56.6412 42.8299C56.1899 42.3786 55.9364 41.7666 55.9364 41.1284V36.3159C55.9364 35.6777 56.1899 35.0657 56.6412 34.6144C57.0924 34.1632 57.7045 33.9097 58.3427 33.9097C58.9808 33.9097 59.5929 34.1632 60.0441 34.6144C60.4954 35.0657 60.7489 35.6777 60.7489 36.3159V41.1284Z" fill="#FFF8FD"/>
</svg>
