<svg width="78" height="78" viewBox="0 0 78 78" fill="none" xmlns="http://www.w3.org/2000/svg">
<path d="M65.4553 21.9105C59.5519 15.9751 50.729 14.7559 43.5744 18.1568L40.4944 15.0768C40.1976 14.7793 39.8451 14.5434 39.4569 14.3824C39.0688 14.2214 38.6528 14.1385 38.2326 14.1385C37.8124 14.1385 37.3963 14.2214 37.0082 14.3824C36.6201 14.5434 36.2675 14.7793 35.9707 15.0768L35.714 15.3655C35.2649 12.2534 32.6019 9.84717 29.3936 9.84717C25.8644 9.84717 22.9769 12.7347 22.9769 16.2638C22.9769 16.5526 22.9769 16.8413 23.0732 17.098C21.1161 18.2209 19.7686 20.2743 19.7686 22.6805C19.7686 24.1563 20.2819 25.4718 21.1161 26.5626C20.7045 26.8459 20.3672 27.2241 20.1327 27.6652C19.8981 28.1064 19.7733 28.5976 19.7686 29.0972V33.4284C12.2932 36.0593 6.93527 43.1818 6.93527 51.5555C6.93527 62.1751 15.5657 70.8055 26.1853 70.8055C36.8049 70.8055 45.4353 62.1751 45.4353 51.5555C45.4354 47.5773 44.201 43.6972 41.9024 40.4504C39.6037 37.2035 36.3541 34.75 32.6019 33.4284V29.0972C32.5973 28.5976 32.4724 28.1064 32.2379 27.6652C32.0033 27.2241 31.666 26.8459 31.2544 26.5626C32.0886 25.4718 32.6019 24.1563 32.6019 22.6805C32.6019 22.3918 32.6019 22.103 32.5057 21.8463C33.0832 21.5255 33.5644 21.0763 33.9815 20.6913C36.9653 22.2955 39.0186 25.4397 39.0186 29.0972V29.3538C39.4357 29.5784 39.8207 29.8993 40.2378 30.1559C40.8474 28.8084 41.6815 27.493 42.7724 26.4343C45.1836 24.0323 48.4485 22.6837 51.8519 22.6837C55.2554 22.6837 58.5202 24.0323 60.9315 26.4343C63.3335 28.8455 64.6821 32.1103 64.6821 35.5138C64.6821 38.9173 63.3335 42.1821 60.9315 44.5934C58.3649 47.1601 55.0603 48.3472 51.6274 48.3472C51.8519 49.3738 51.8519 50.4647 51.8519 51.5555C51.8519 52.6463 51.7557 53.7051 51.6274 54.7638C56.6644 54.7638 61.6374 52.9351 65.4553 49.1172C67.2479 47.3343 68.6705 45.2146 69.6412 42.8801C70.6119 40.5455 71.1117 38.0421 71.1117 35.5138C71.1117 32.9855 70.6119 30.4821 69.6412 28.1476C68.6705 25.8131 67.2479 23.6934 65.4553 21.9105ZM29.3936 13.0555C31.1582 13.0555 32.6019 14.4993 32.6019 16.2638C32.6019 17.3226 32.0565 18.2209 31.2544 18.7984C30.0994 17.2584 28.2707 16.2638 26.1853 16.2638C26.1853 14.4993 27.629 13.0555 29.3936 13.0555ZM24.3244 20.1459C25.4794 21.6859 27.3082 22.6805 29.3936 22.6805C29.3936 24.4451 27.9499 25.8888 26.1853 25.8888C24.4207 25.8888 22.9769 24.4451 22.9769 22.6805C22.9769 21.6218 23.5224 20.7234 24.3244 20.1459ZM39.0186 51.5555C39.0186 58.6459 33.2757 64.3888 26.1853 64.3888C19.0949 64.3888 13.3519 58.6459 13.3519 51.5555C13.3519 44.4651 19.0949 38.7222 26.1853 38.7222C33.2757 38.7222 39.0186 44.4651 39.0186 51.5555Z" fill="#FFF8FD"/>
</svg>
