<svg width="215" height="40" viewBox="0 0 215 40" fill="none" xmlns="http://www.w3.org/2000/svg">
<path d="M203.395 34.2183C203.395 31.0325 205.993 28.5546 209.063 28.5546C212.252 28.5546 214.731 31.1505 214.731 34.2183C214.731 37.2862 212.134 39.8821 209.063 39.8821C205.993 39.8821 203.395 37.4042 203.395 34.2183Z" fill="#86BC25"/>
<path d="M33.114 18.9972C33.114 25.6049 31.4608 30.5606 27.9182 34.1005C24.3756 37.6403 19.416 39.4102 13.0393 39.4102H0.522095V0.118164H13.7478C20.0064 0.118164 24.7299 1.65209 28.0363 4.95592C31.4608 8.14176 33.114 12.8615 33.114 18.9972ZM22.2501 19.3512C22.2501 15.6934 21.5415 13.0975 20.1245 11.3276C18.8255 9.67569 16.5819 8.73173 13.7478 8.73173H10.9137V30.6786H13.2755C16.4638 30.6786 18.7075 29.7347 20.2426 27.8468C21.5415 25.9589 22.2501 23.127 22.2501 19.3512Z" fill="black"/>
<path d="M77.2785 -6.10352e-05H67.4773V39.41H77.2785V-6.10352e-05Z" fill="black"/>
<path d="M109.634 24.6607C109.634 29.3804 108.453 33.1563 105.855 35.8701C103.257 38.584 99.7149 39.8819 95.2276 39.8819C90.8584 39.8819 87.4339 38.584 84.836 35.7521C82.238 32.9203 80.9391 29.2624 80.9391 24.6607C80.9391 19.9409 82.12 16.1651 84.7179 13.5692C87.3158 10.8554 90.8584 9.55743 95.3457 9.55743C98.1798 9.55743 100.66 10.1474 102.785 11.3273C105.029 12.5073 106.564 14.2772 107.745 16.5191C109.162 18.997 109.634 21.5928 109.634 24.6607ZM91.0945 24.6607C91.0945 27.2565 91.4488 29.0265 92.0392 30.3244C92.6297 31.6223 93.6925 32.2123 95.3457 32.2123C96.9989 32.2123 97.9436 31.6223 98.6521 30.3244C99.2425 29.0265 99.5968 27.0206 99.5968 24.6607C99.5968 22.0648 99.2425 20.2949 98.6521 18.997C98.0617 17.817 96.9989 17.1091 95.3457 17.1091C93.9286 17.1091 92.7478 17.699 92.0392 18.997C91.4488 20.2949 91.0945 22.0648 91.0945 24.6607Z" fill="black"/>
<path d="M123.45 10.0295H113.649V39.292H123.45V10.0295Z" fill="black"/>
<path d="M123.45 -6.10352e-05H113.649V6.60761H123.45V-6.10352e-05Z" fill="black"/>
<path d="M143.407 31.8585C144.706 31.8585 146.359 31.5045 148.13 30.9145V38.3481C146.832 38.9381 145.533 39.2921 144.352 39.5281C143.171 39.7641 141.754 39.8821 140.101 39.8821C136.794 39.8821 134.432 39.0561 132.897 37.2862C131.48 35.6343 130.654 33.0384 130.654 29.6166V17.5812H127.229V10.0296H130.654V2.71393L140.573 1.06201V10.2656H146.95V17.6992H140.573V29.0266C140.809 31.0325 141.636 31.8585 143.407 31.8585Z" fill="black"/>
<path d="M166.316 31.8585C167.615 31.8585 169.268 31.5045 171.039 30.9145V38.3481C169.74 38.9381 168.441 39.2921 167.261 39.5281C166.08 39.7641 164.663 39.8821 163.009 39.8821C159.703 39.8821 157.341 39.0561 155.806 37.2862C154.389 35.6343 153.563 33.0384 153.563 29.6166V17.5812H150.138V10.0296H153.563V2.59593L163.482 1.06201V10.2656H169.858V17.6992H163.482V29.0266C163.6 31.0325 164.545 31.8585 166.316 31.8585Z" fill="black"/>
<path d="M197.491 12.9793C195.129 10.6194 191.823 9.55743 187.571 9.55743C183.084 9.55743 179.542 10.8554 177.062 13.5692C174.582 16.2831 173.401 20.0589 173.401 25.0147C173.401 29.7344 174.7 33.5102 177.298 36.1061C180.014 38.702 183.675 39.9999 188.398 39.9999C190.76 39.9999 192.649 39.8819 194.302 39.5279C195.837 39.174 197.609 38.702 199.026 37.876L197.609 31.2683C196.546 31.7403 195.365 32.0943 194.42 32.3303C193.003 32.6843 191.35 32.8023 189.697 32.8023C187.808 32.8023 186.272 32.3303 185.21 31.5043C184.147 30.5604 183.556 29.2624 183.556 27.6105H201.151V23.0088C201.033 18.643 199.734 15.3391 197.491 12.9793ZM183.556 21.1209C183.675 19.5869 184.147 18.289 184.855 17.581C185.564 16.8731 186.509 16.5191 187.808 16.5191C188.988 16.5191 190.169 16.8731 190.878 17.699C191.586 18.525 191.941 19.5869 192.059 21.1209H183.556Z" fill="black"/>
<path d="M60.1559 12.9793C57.6761 10.6194 54.4877 9.55743 50.2366 9.55743C45.7493 9.55743 42.2067 10.8554 39.7269 13.5692C37.2471 16.2831 36.0662 20.0589 36.0662 25.0147C36.0662 29.7344 37.3652 33.5102 39.9631 36.1061C42.6791 38.702 46.3398 39.9999 51.0632 39.9999C53.425 39.9999 55.3144 39.8819 56.9676 39.5279C58.5027 39.174 60.274 38.702 61.691 37.876L60.274 31.1504C59.2112 31.6223 58.0304 31.9763 57.0857 32.2123C55.6686 32.5663 54.0154 32.6843 52.3622 32.6843C50.4728 32.6843 48.9377 32.2123 47.8749 31.3863C46.8121 30.4424 46.2217 29.1445 46.2217 27.4925H63.8166V23.0088C63.6985 18.643 62.3996 15.3391 60.1559 12.9793ZM46.1036 21.1209C46.2217 19.5869 46.694 18.289 47.4025 17.581C48.1111 16.8731 49.0558 16.5191 50.3547 16.5191C51.6537 16.5191 52.7164 16.8731 53.425 17.699C54.1335 18.525 54.4877 19.5869 54.6058 21.1209H46.1036Z" fill="black"/>
</svg>
