<svg width="28" height="18" fill="none" xmlns="http://www.w3.org/2000/svg"><path d="M19.025 17.454a8.48 8.48 0 0 1-1.711-.17 9.575 9.575 0 0 1-1.618-.484c1.235-1.122 2.204-2.374 2.906-3.755a9.403 9.403 0 0 0 1.05-4.318 9.445 9.445 0 0 0-1.05-4.317c-.7-1.382-1.67-2.633-2.906-3.755a9.605 9.605 0 0 1 1.618-.483A8.555 8.555 0 0 1 19.024 0c2.45 0 4.529.847 6.235 2.54 1.707 1.695 2.56 3.757 2.56 6.187-.002 2.43-.855 4.493-2.56 6.188-1.705 1.695-3.783 2.541-6.234 2.54ZM14 15.896a8.696 8.696 0 0 1-2.747-3.054c-.68-1.247-1.02-2.619-1.022-4.115 0-1.496.34-2.867 1.022-4.114A8.728 8.728 0 0 1 14 1.558a8.708 8.708 0 0 1 2.749 3.055c.68 1.247 1.02 2.618 1.02 4.114-.001 1.496-.341 2.868-1.02 4.115A8.675 8.675 0 0 1 14 15.896Zm-5.025 1.558c-2.45 0-4.527-.846-6.233-2.54C1.036 13.223.182 11.16.182 8.728c-.001-2.432.852-4.494 2.56-6.186C4.45.849 6.527 0 8.975 0c.586 0 1.157.057 1.712.172a9.721 9.721 0 0 1 1.617.483C11.07 1.777 10.101 3.029 9.4 4.41c-.701 1.382-1.052 2.821-1.053 4.316 0 1.642.34 3.164 1.021 4.567a10.446 10.446 0 0 0 2.81 3.568 9.84 9.84 0 0 1-1.553.437 8.61 8.61 0 0 1-1.65.155Z" fill="#FFF8FD"/></svg>