<svg width="17" height="17" viewBox="0 0 17 17" fill="none" xmlns="http://www.w3.org/2000/svg">
<path d="M16.3393 8.16961C16.3393 3.65765 12.6816 -1.52588e-05 8.16963 -1.52588e-05C3.65766 -1.52588e-05 0 3.65765 0 8.16961C0 12.2473 2.98751 15.6271 6.89312 16.24V10.5311H4.8188V8.16961H6.89312V6.36974C6.89312 4.32223 8.11279 3.19125 9.97891 3.19125C10.8727 3.19125 11.8077 3.35081 11.8077 3.35081V5.3613H10.7775C9.76262 5.3613 9.44613 5.99105 9.44613 6.63712V8.16961H11.7119L11.3497 10.5311H9.44613V16.24C13.3517 15.6271 16.3393 12.2473 16.3393 8.16961Z" fill="white"/>
</svg>
