<svg width="66" height="65" viewBox="0 0 66 65" fill="none" xmlns="http://www.w3.org/2000/svg">
<path d="M52.3056 13.25C50.541 13.25 49.0309 12.6222 47.7754 11.3667C46.5199 10.1112 45.891 8.60004 45.8889 6.83331C45.8868 5.06659 46.5156 3.55654 47.7754 2.30315C49.0352 1.04976 50.5453 0.420925 52.3056 0.416648C54.0659 0.41237 55.577 1.0412 56.8389 2.30315C58.1009 3.56509 58.7286 5.07515 58.7222 6.83331C58.7158 8.59148 58.0881 10.1026 56.8389 11.3667C55.5898 12.6308 54.0787 13.2585 52.3056 13.25ZM49.0972 61.375V38.9166C49.0972 36.7778 48.5486 34.8528 47.4514 33.1416C46.3541 31.4305 44.951 30.0937 43.242 29.1312L46.0493 20.8698C46.4771 19.533 47.2663 18.4635 48.4171 17.6614C49.5678 16.8594 50.864 16.4583 52.3056 16.4583C53.7472 16.4583 55.0444 16.8594 56.1973 17.6614C57.3501 18.4635 58.1383 19.533 58.5618 20.8698L65.2993 41.0823C65.6736 42.1517 65.5271 43.1281 64.8598 44.0115C64.1924 44.8948 63.323 45.3355 62.2514 45.3333H58.7222V61.375C58.7222 62.284 58.4142 63.0465 57.7982 63.6625C57.1822 64.2785 56.4208 64.5855 55.5139 64.5833H52.3056C51.3965 64.5833 50.6351 64.2753 50.0212 63.6593C49.4074 63.0433 49.0994 62.2819 49.0972 61.375ZM34.6597 30.8958C33.3229 30.8958 32.1872 30.4285 31.2525 29.4938C30.3178 28.5591 29.8494 27.4223 29.8472 26.0833C29.8451 24.7444 30.3135 23.6086 31.2525 22.6761C32.1915 21.7435 33.3272 21.2751 34.6597 21.2708C35.9923 21.2665 37.1291 21.735 38.0702 22.6761C39.0113 23.6172 39.4786 24.7529 39.4722 26.0833C39.4658 27.4137 38.9985 28.5505 38.0702 29.4938C37.1419 30.437 36.0051 30.9044 34.6597 30.8958ZM12.2014 13.25C10.4368 13.25 8.92676 12.6222 7.67123 11.3667C6.4157 10.1112 5.78687 8.60004 5.78473 6.83331C5.78259 5.06659 6.41142 3.55654 7.67123 2.30315C8.93103 1.04976 10.4411 0.420925 12.2014 0.416648C13.9617 0.41237 15.4728 1.0412 16.7348 2.30315C17.9967 3.56509 18.6245 5.07515 18.6181 6.83331C18.6116 8.59148 17.9839 10.1026 16.7348 11.3667C15.4857 12.6308 13.9745 13.2585 12.2014 13.25ZM5.78473 61.375V42.125H4.18056C3.27153 42.125 2.51009 41.817 1.89623 41.201C1.28237 40.585 0.974368 39.8235 0.972229 38.9166V22.875C0.972229 21.1104 1.60106 19.6003 2.85873 18.3448C4.1164 17.0893 5.62645 16.4605 7.3889 16.4583H17.0139C18.7785 16.4583 20.2896 17.0871 21.5473 18.3448C22.8049 19.6025 23.4327 21.1125 23.4306 22.875V38.9166C23.4306 39.8257 23.1226 40.5882 22.5066 41.2042C21.8906 41.8202 21.1291 42.1271 20.2222 42.125H18.6181V61.375C18.6181 62.284 18.3101 63.0465 17.6941 63.6625C17.0781 64.2785 16.3166 64.5855 15.4097 64.5833H8.99306C8.08403 64.5833 7.32259 64.2753 6.70873 63.6593C6.09487 63.0433 5.78687 62.2819 5.78473 61.375ZM29.8472 61.375V51.75C28.9382 51.75 28.1768 51.442 27.5629 50.826C26.949 50.21 26.641 49.4485 26.6389 48.5416V38.9166C26.6389 37.5798 27.1073 36.4441 28.0441 35.5094C28.981 34.5747 30.1167 34.1063 31.4514 34.1041H37.8681C39.2049 34.1041 40.3417 34.5726 41.2785 35.5094C42.2154 36.4462 42.6827 37.582 42.6806 38.9166V48.5416C42.6806 49.4507 42.3726 50.2132 41.7566 50.8292C41.1406 51.4452 40.3791 51.7521 39.4722 51.75V61.375C39.4722 62.284 39.1642 63.0465 38.5482 63.6625C37.9322 64.2785 37.1708 64.5855 36.2639 64.5833H33.0556C32.1465 64.5833 31.3851 64.2753 30.7712 63.6593C30.1574 63.0433 29.8494 62.2819 29.8472 61.375Z" fill="#FFF8FD"/>
</svg>
