<svg width="40" height="40" viewBox="0 0 40 40" fill="none" xmlns="http://www.w3.org/2000/svg">
<rect width="40" height="40" rx="20" fill="#F7F7F3"/>
<g clip-path="url(#clip0_2187_287)">
<path d="M22.0827 19.5H17.916C17.5743 19.5 17.291 19.2167 17.291 18.875C17.291 18.5333 17.5743 18.25 17.916 18.25H22.0827C22.4243 18.25 22.7077 18.5333 22.7077 18.875C22.7077 19.2167 22.4243 19.5 22.0827 19.5Z" fill="#292D32"/>
<path d="M14.1078 28.9577C13.7578 28.9577 13.4328 28.8743 13.1411 28.7077C12.4995 28.3327 12.1328 27.5743 12.1328 26.6327V14.8827C12.1328 12.766 13.8578 11.041 15.9745 11.041H24.0161C26.1328 11.041 27.8578 12.766 27.8578 14.8827V26.6244C27.8578 27.566 27.4911 28.3244 26.8495 28.6994C26.2078 29.0744 25.3661 29.0327 24.5411 28.5744L20.4745 26.316C20.2328 26.1827 19.7578 26.1827 19.5161 26.316L15.4495 28.5744C14.9995 28.8244 14.5411 28.9577 14.1078 28.9577ZM15.9828 12.291C14.5578 12.291 13.3911 13.4577 13.3911 14.8827V26.6244C13.3911 27.116 13.5328 27.4827 13.7828 27.6243C14.0328 27.7743 14.4245 27.7243 14.8495 27.4827L18.9161 25.2243C19.5328 24.8827 20.4661 24.8827 21.0828 25.2243L25.1495 27.4827C25.5745 27.7243 25.9661 27.7743 26.2161 27.6243C26.4661 27.4743 26.6078 27.1077 26.6078 26.6244V14.8827C26.6078 13.4577 25.4411 12.291 24.0161 12.291H15.9828Z" fill="#292D32"/>
</g>
<defs>
<clipPath id="clip0_2187_287">
<rect width="20" height="20" fill="white" transform="translate(10 10)"/>
</clipPath>
</defs>
</svg>
