<svg width="78" height="77" viewBox="0 0 78 77" fill="none" xmlns="http://www.w3.org/2000/svg">
<path d="M65.5614 31.2813H31.2994L63.7567 22.712C64.064 22.6311 64.3521 22.4901 64.6046 22.2972C64.857 22.1043 65.0688 21.8633 65.2276 21.5881C65.3864 21.313 65.4892 21.0091 65.53 20.694C65.5708 20.3789 65.5487 20.0589 65.4652 19.7523L63.0108 10.7289C62.673 9.51491 61.8705 8.48286 60.7773 7.85627C59.684 7.22969 58.3879 7.05901 57.1696 7.3812L11.3636 19.4726C10.7537 19.6309 10.1816 19.9093 9.68059 20.2915C9.17961 20.6737 8.75992 21.152 8.44607 21.6984C8.13047 22.2381 7.92657 22.8357 7.84648 23.4557C7.76639 24.0758 7.81175 24.7056 7.97986 25.3078L10.2177 33.5552C10.2177 33.5973 10.2177 33.6424 10.2177 33.6875V60.1563C10.2177 61.4326 10.7247 62.6567 11.6272 63.5592C12.5297 64.4618 13.7538 64.9688 15.0302 64.9688H63.1552C64.4315 64.9688 65.6556 64.4618 66.5581 63.5592C67.4606 62.6567 67.9677 61.4326 67.9677 60.1563V33.6875C67.9677 33.0494 67.7142 32.4373 67.2629 31.9861C66.8116 31.5348 66.1996 31.2813 65.5614 31.2813ZM58.3908 12.0313L60.1955 18.6695L50.0922 21.3555L41.6313 16.4588L58.3908 12.0313ZM23.9183 21.1359L32.3762 26.0206L14.4497 30.7519L12.645 24.1107L23.9183 21.1359Z" fill="white"/>
</svg>
