<svg width="27" height="25" fill="none" xmlns="http://www.w3.org/2000/svg"><path d="M22.979 1.154a.935.935 0 0 0-.836-.518h-5.61a.935.935 0 0 0-.908 1.163l1.807 7.225-.155.496h9.416a.935.935 0 0 0 .026-.886l-3.74-7.48Z" fill="#FFF8FD"/><path d="M22.979 1.154a.935.935 0 0 0-.836-.518h-5.61a.935.935 0 0 0-.908 1.163l1.807 7.225-.155.496h9.416a.935.935 0 0 0 .026-.886l-3.74-7.48ZM4.476 1.154a.935.935 0 0 1 .836-.518h5.61A.935.935 0 0 1 11.83 1.8l-1.806 7.225.155.496H.762a.935.935 0 0 1-.026-.886l3.74-7.48Z" fill="#FFF8FD"/><path d="M4.476 1.154a.935.935 0 0 1 .836-.518h5.61A.935.935 0 0 1 11.83 1.8l-1.806 7.225.155.496H.762a.935.935 0 0 1-.026-.886l3.74-7.48Z" fill="#FFF8FD"/><path d="M10.015 1.344a.935.935 0 0 1 .907-.708h5.61a.935.935 0 0 1 .908.708l1.87 7.48a.934.934 0 0 1-.014.507l-.06.189H8.22l-.059-.19a.935.935 0 0 1-.015-.504l1.87-7.482Z" fill="#FFF8FD"/><path d="M10.015 1.344a.935.935 0 0 1 .907-.708h5.61a.935.935 0 0 1 .908.708l1.87 7.48a.934.934 0 0 1-.014.507l-.06.189H8.22l-.059-.19a.935.935 0 0 1-.015-.504l1.87-7.482Z" fill="#FFF8FD"/><path d="m17.422 9.052-4.587 14.682a.935.935 0 0 0 1.618.869L26.608 9.642a.935.935 0 0 0 .21-.59h-9.396Z" fill="#FFF8FD"/><path d="M.636 9.052c0 .214.074.422.21.589L13.002 24.6a.935.935 0 0 0 1.617-.867L10.033 9.052H.636Z" fill="#FFF8FD"/><path d="M.636 9.052c0 .214.074.422.21.589L13.002 24.6a.935.935 0 0 0 1.617-.867L10.033 9.052H.636Z" fill="#FFF8FD"/><path d="M8.117 9.052c0 .094.014.188.043.278l4.675 14.961a.935.935 0 0 0 1.785 0l4.675-14.96a.93.93 0 0 0 .042-.28H8.117Z" fill="#FFF8FD"/><path d="M8.117 9.052c0 .094.014.188.043.278l4.675 14.961a.935.935 0 0 0 1.785 0l4.675-14.96a.93.93 0 0 0 .042-.28H8.117Z" fill="#FFF8FD"/><path d="M5.312.636a.935.935 0 0 0-.836.518l-3.74 7.48a.935.935 0 0 0 .11 1.008L13 24.603a.934.934 0 0 0 1.452 0l12.156-14.96a.935.935 0 0 0 .11-1.009l-3.74-7.48a.935.935 0 0 0-.836-.518H5.312Z" fill="#FFF8FD"/></svg>