<svg width="17" height="17" viewBox="0 0 17 17" fill="none" xmlns="http://www.w3.org/2000/svg">
<path d="M5.44675 0.0572585C4.5775 0.09827 3.9839 0.23699 3.46496 0.440904C2.92789 0.65021 2.47268 0.931082 2.01976 1.38564C1.56683 1.8402 1.28792 2.29574 1.08009 2.83362C0.87895 3.3537 0.742681 3.9478 0.704284 4.81754C0.665886 5.68727 0.65739 5.96684 0.661638 8.18538C0.665886 10.4039 0.67569 10.682 0.717845 11.5536C0.759347 12.4226 0.897577 13.0161 1.10149 13.5352C1.31112 14.0723 1.59167 14.5273 2.04639 14.9804C2.50111 15.4335 2.95632 15.7117 3.49552 15.9199C4.01511 16.1207 4.60937 16.2576 5.47894 16.2957C6.34852 16.3338 6.62841 16.3426 8.8463 16.3383C11.0642 16.3341 11.3434 16.3243 12.2148 16.283C13.0862 16.2416 13.6765 16.1024 14.1958 15.8995C14.7328 15.6893 15.1882 15.4093 15.641 14.9544C16.0937 14.4995 16.3725 14.0437 16.5802 13.5054C16.7815 12.9859 16.9182 12.3916 16.956 11.5227C16.994 10.6507 17.003 10.3722 16.9988 8.15401C16.9945 5.9358 16.9846 5.6577 16.9432 4.78649C16.9019 3.91528 16.7635 3.32364 16.5597 2.80421C16.3498 2.26714 16.0696 1.81242 15.615 1.35901C15.1604 0.905593 14.7042 0.627008 14.1662 0.419827C13.6463 0.21869 13.0523 0.081604 12.1828 0.0440237C11.3132 0.00644341 11.0333 -0.00319675 8.8146 0.00105146C6.59589 0.00529966 6.31812 0.0147764 5.44675 0.0572585ZM5.54217 14.826C4.74563 14.7913 4.31313 14.659 4.02491 14.5482C3.64322 14.4012 3.37134 14.2234 3.0841 13.9389C2.79685 13.6545 2.62039 13.3816 2.47137 13.0007C2.35945 12.7125 2.22465 12.2805 2.1874 11.484C2.14688 10.623 2.13838 10.3645 2.13364 8.18342C2.1289 6.0023 2.13724 5.74414 2.17498 4.88289C2.20897 4.08701 2.34213 3.65402 2.45275 3.36596C2.5998 2.98378 2.77692 2.71239 3.06204 2.42531C3.34716 2.13823 3.61921 1.96144 4.0004 1.81242C4.2883 1.70001 4.72031 1.56635 5.51652 1.52844C6.37809 1.4876 6.63625 1.47943 8.81705 1.47469C10.9978 1.46995 11.2567 1.47812 12.1186 1.51603C12.9144 1.55067 13.3476 1.68252 13.6353 1.79379C14.0172 1.94085 14.2889 2.11748 14.576 2.40309C14.8631 2.6887 15.04 2.95976 15.189 3.34178C15.3016 3.62886 15.4353 4.0607 15.4728 4.8574C15.5139 5.71897 15.5232 5.9773 15.5271 8.15793C15.531 10.3386 15.5233 10.5975 15.4856 11.4585C15.4508 12.255 15.3188 12.6877 15.2078 12.9762C15.0608 13.3577 14.8835 13.6298 14.5982 13.9167C14.3129 14.2036 14.0412 14.3804 13.6598 14.5294C13.3723 14.6417 12.9398 14.7757 12.1442 14.8136C11.2826 14.8541 11.0245 14.8626 8.84286 14.8673C6.66125 14.8721 6.4039 14.8632 5.54234 14.826M12.2022 3.80336C12.2025 3.99727 12.2604 4.18673 12.3684 4.34777C12.4764 4.50882 12.6297 4.63422 12.809 4.70811C12.9883 4.782 13.1854 4.80107 13.3755 4.7629C13.5657 4.72473 13.7402 4.63103 13.8771 4.49367C14.0139 4.3563 14.107 4.18143 14.1444 3.99118C14.1819 3.80092 14.1621 3.60383 14.0876 3.42482C14.013 3.24582 13.8871 3.09294 13.7256 2.98552C13.5642 2.87811 13.3745 2.82098 13.1806 2.82137C12.9207 2.82189 12.6716 2.92563 12.4881 3.10978C12.3046 3.29393 12.2018 3.54341 12.2022 3.80336ZM4.63551 8.17787C4.64008 10.4948 6.52171 12.3687 8.83813 12.3643C11.1545 12.3599 13.0298 10.4784 13.0254 8.16153C13.021 5.84462 11.1389 3.97018 8.82211 3.97476C6.50537 3.97933 4.6311 5.86129 4.63551 8.17787ZM6.10702 8.17493C6.10596 7.63632 6.26463 7.10949 6.56298 6.66106C6.86133 6.21263 7.28595 5.86274 7.78315 5.65564C8.28036 5.44854 8.8278 5.39353 9.35627 5.49756C9.88474 5.60159 10.3705 5.85999 10.7521 6.24009C11.1337 6.62019 11.394 7.10492 11.5002 7.63297C11.6063 8.16102 11.5534 8.70868 11.3483 9.2067C11.1432 9.70472 10.795 10.1307 10.3477 10.4308C9.90048 10.731 9.37428 10.8917 8.83568 10.8928C8.47804 10.8935 8.12376 10.8238 7.79307 10.6877C7.46237 10.5515 7.16175 10.3515 6.90836 10.0991C6.65497 9.8467 6.45379 9.54687 6.31629 9.21672C6.1788 8.88657 6.10769 8.53256 6.10702 8.17493Z" fill="white"/>
</svg>
