<svg width="132" height="54" viewBox="0 0 132 54" fill="none" xmlns="http://www.w3.org/2000/svg">
<g clip-path="url(#clip0_1220_2468)">
<path d="M102.047 0.830322V26.9302C101.137 27.6281 100.366 28.3957 99.5958 29.2332V0.830322H70.5261V24.6273H68.1445V0.830322H39.1449V24.6273H36.6933V0.830322H7.69367V27.977L0.268646 52.6114H6.78305L10.0753 41.7248H10.9859L16.3795 52.6114H24.2248L18.9713 41.7248H30.8793L27.5871 52.6114H34.7319L38.0242 41.7248H39.5652H41.8067H42.0169H55.466L52.3138 52.6114H59.4587L62.5407 41.7248H65.7629L65.833 52.6114H71.857L78.7917 41.7248H83.3448L81.0332 52.6114H88.108L90.4196 41.7248H94.4823C94.3422 45.0745 95.1828 48.1451 97.4243 50.1689C100.156 52.6812 104.359 53.1697 107.511 53.1697C111.784 53.1697 116.197 52.5416 120.61 51.5646L123.062 41.7248H131.117V0.830322H102.047ZM35.7126 26.023L35.2923 27.4187L31.4397 40.1895L31.2996 40.6082H18.551L17.5703 38.5147L31.2296 24.5575H22.4737L11.7564 36.142L15.1887 24.6273H8.67433V1.87711H35.6426V26.023H35.7126ZM43.2077 36.8398C42.9275 36.8398 42.6473 36.9096 42.3671 36.9096C41.9468 36.9096 41.6666 36.9096 41.3864 36.9096H39.6353L40.4058 33.9786L40.756 32.5131L41.6666 29.0936C42.0869 29.0936 42.4371 29.0936 42.8574 29.0936H44.1883C46.4999 29.0936 47.9008 29.2332 48.4612 29.931C48.8815 30.4893 48.8115 31.3965 48.3211 32.862C47.5506 35.3045 46.4999 36.6305 43.2077 36.8398ZM62.8209 40.678L65.6929 30.6289L65.7629 40.678H62.8209ZM67.1639 24.6273H60.4393L55.8162 40.678H48.6013C52.2438 39.3521 54.4853 36.77 55.1858 32.9318C55.7461 30.0008 55.466 28.0468 54.2751 26.5813C52.4539 24.4179 48.8115 24.5575 45.5893 24.5575C45.0289 24.5575 40.2657 24.5575 40.2657 24.5575V1.87711H67.2339V24.6273H67.1639ZM83.4849 40.678H79.4221L85.5863 31.0476L83.4849 40.678ZM98.6151 25.046V30.6289C96.7238 33.211 95.533 36.0722 95.0427 38.3053C94.8326 39.073 94.6925 39.9104 94.6224 40.678H90.6297L93.992 24.6273H82.5743L72.3474 40.678H71.5768V1.87711H98.5451V25.046H98.6151ZM114.166 47.2379C112.625 47.517 111.084 47.7264 109.613 47.7264C105.69 47.7264 103.028 45.912 102.958 41.7248H115.497L114.166 47.2379ZM130.066 40.678H123.272L124.393 36.2117H110.803L109.683 40.678H103.098V39.7708C103.168 39.2823 103.308 38.724 103.448 38.1657C104.639 33.3505 107.861 28.5353 113.325 28.5353C115.497 28.5353 117.668 29.3727 117.388 32.3735H125.513C125.864 30.9778 126.354 28.6051 124.813 26.3719C123.062 23.9992 119.629 23.0222 115.076 23.0222C111.854 23.0222 107.161 23.5107 103.098 26.1626V1.87711H130.066V40.678Z" fill="#00338D"/>
</g>
<defs>
<clipPath id="clip0_1220_2468">
<rect width="130.848" height="52.3394" fill="white" transform="translate(0.268646 0.830322)"/>
</clipPath>
</defs>
</svg>
