<svg width="17" height="17" viewBox="0 0 17 17" fill="none" xmlns="http://www.w3.org/2000/svg">
<path d="M14.2343 13.7667H11.8165V10.0176C11.8165 9.12356 11.8004 7.97268 10.559 7.97268C9.29972 7.97268 9.10704 8.94675 9.10704 9.95249V13.7665H6.6892V6.05672H9.01032V7.11034H9.04282C9.27511 6.71708 9.61077 6.39357 10.0141 6.17426C10.4174 5.95495 10.8732 5.84805 11.333 5.86495C13.7835 5.86495 14.2354 7.46096 14.2354 9.53727L14.2343 13.7667ZM3.96109 5.00285C3.68358 5.0029 3.41228 4.92147 3.18152 4.76886C2.95075 4.61624 2.77089 4.3993 2.66464 4.14546C2.5584 3.89162 2.53056 3.61229 2.58465 3.34278C2.63874 3.07328 2.77233 2.82571 2.96852 2.63138C3.16471 2.43705 3.4147 2.30469 3.68686 2.25104C3.95903 2.19739 4.24114 2.22485 4.49754 2.32995C4.75395 2.43506 4.97311 2.61309 5.12733 2.84153C5.28154 3.06996 5.36389 3.33855 5.36394 3.61333C5.36397 3.79577 5.3277 3.97643 5.25722 4.145C5.18674 4.31357 5.08343 4.46674 4.95316 4.59577C4.82289 4.7248 4.66822 4.82716 4.49801 4.897C4.32779 4.96685 4.14534 5.00282 3.96109 5.00285ZM5.17 13.7667H2.74965V6.05672H5.17V13.7667ZM15.4397 0.00110079H1.5347C1.21909 -0.00242574 0.91497 0.118257 0.689184 0.336629C0.463397 0.555001 0.334418 0.853197 0.330566 1.16569V14.9909C0.334286 15.3035 0.46319 15.6019 0.688968 15.8205C0.914747 16.0391 1.21894 16.1601 1.5347 16.1567H15.4397C15.7561 16.1607 16.0612 16.0401 16.2878 15.8215C16.5145 15.6029 16.6443 15.3042 16.6487 14.9909V1.16469C16.6441 0.85158 16.5143 0.553045 16.2876 0.334678C16.0609 0.116311 15.756 -0.00402671 15.4397 0.00010288" fill="white"/>
</svg>
