<svg width="188" height="54" viewBox="0 0 188 54" fill="none" xmlns="http://www.w3.org/2000/svg">
<path d="M35.1147 47.3103C34.716 47.3372 34.3289 47.3616 33.9288 47.3616C33.4772 47.3616 33.0398 47.3231 32.5881 47.3103L33.903 44.1598L35.1147 47.3103ZM36.5715 50.8839C36.8038 50.8711 37.1651 50.8083 37.5251 50.8083C37.8864 50.8083 38.3381 50.8711 38.5316 50.8839C37.951 49.6414 37.0993 47.7065 36.6103 46.5923C36.1457 45.5177 35.3728 43.7239 34.7547 41.9685C34.6127 42.007 34.4824 42.0339 34.3418 42.0339C34.1869 42.0339 34.0579 42.007 33.9159 41.9685C33.6075 43.0187 32.8578 44.6843 31.5571 47.5809L30.0616 50.8839C30.2409 50.8583 30.4229 50.8083 30.641 50.8083C30.8474 50.8083 31.0939 50.8583 31.2603 50.8839C31.4655 50.1543 31.8784 49.0901 32.2901 48.1053C32.8062 48.0784 33.3224 48.054 33.8372 48.054C34.3921 48.054 34.9341 48.0784 35.4902 48.1053L36.0296 49.4632L36.5715 50.8839Z" fill="#505967"/>
<path d="M39.6617 45.0559C39.6617 47.246 39.6617 49.3604 39.5198 50.8837C39.8049 50.8721 40.165 50.808 40.4476 50.808C40.7443 50.808 41.054 50.8721 41.3508 50.8837C41.2476 49.8463 41.2218 48.4628 41.2218 46.5548C41.2218 45.2598 41.2218 43.0453 41.3637 42.0965C41.054 42.1349 40.7327 42.1747 40.4476 42.1747C40.2553 42.1747 39.7766 42.1234 39.5327 42.0965C39.6617 43.3377 39.6617 44.2481 39.6617 45.0559Z" fill="#505967"/>
<path d="M47.3285 46.5291C48.5028 46.3111 49.5725 45.5802 49.5725 44.1595C49.5725 43.6209 49.366 43.0952 48.9802 42.7234C48.4266 42.1989 47.7931 42.0964 46.9556 42.0964C46.6588 42.0964 45.1633 42.1605 44.8291 42.1605C44.171 42.1605 43.8355 42.1233 43.54 42.0964C43.629 43.7492 43.629 43.9287 43.629 45.6071C43.629 48.078 43.6161 48.3601 43.5142 50.8835C43.798 50.8464 44.1077 50.8079 44.4019 50.8079C44.7258 50.8079 45.0084 50.8579 45.2665 50.8835C45.2665 50.5514 45.2149 48.8986 45.2149 48.5268V46.7086H45.5246C46.2214 47.6818 47.0188 48.8089 47.6769 49.8219C47.8705 50.1155 48.1544 50.5899 48.3479 50.8835C48.735 50.8323 48.8899 50.8079 49.3931 50.8079C49.8564 50.8079 50.179 50.8464 50.539 50.8835C49.7273 49.8731 49.3776 49.4244 48.3608 48.0024C48.1673 47.7331 47.8834 47.3099 47.6898 47.042L47.3285 46.5291ZM45.2149 42.7888C45.4084 42.7747 45.8859 42.7234 46.131 42.7234C46.5556 42.7234 46.9827 42.7888 47.3285 43.0452C47.7802 43.3773 47.8705 43.8389 47.8705 44.3775C47.8705 45.2084 47.3943 46.1457 46.1052 46.1457C45.7697 46.1457 45.4601 46.1187 45.2149 46.1059V42.7888Z" fill="#505967"/>
<path d="M54.0431 47.8874C53.4392 46.1063 52.6004 43.6085 52.2004 42.0968C51.8778 42.1481 51.5952 42.1737 51.2984 42.1737C50.9887 42.1737 50.55 42.1237 50.2919 42.0968C50.821 43.4803 51.2713 44.7087 51.621 45.6832C52.2146 47.3488 52.6004 48.5029 53.065 49.9095L53.3863 50.884C53.5669 50.8468 53.7721 50.8083 53.9153 50.8083C54.0573 50.8083 54.1863 50.8327 54.4044 50.884C54.6108 50.2185 54.856 49.3991 55.0379 48.8734C55.5386 47.4129 55.6044 47.2078 56.2625 45.3896L56.6483 44.3266C56.7903 44.7356 57.0354 45.3896 57.1761 45.7986C57.318 46.1961 57.9761 48.1566 58.131 48.5926C58.3374 49.1683 58.3878 49.3337 58.8652 50.884C58.9813 50.8711 59.2252 50.8083 59.4201 50.8083C59.6007 50.8083 59.7414 50.8468 59.9349 50.884C60.4253 49.3607 60.4769 49.2068 61.1982 47.1565C61.9079 45.1575 62.3454 44.0189 63.1183 42.0968C62.9247 42.1481 62.7338 42.1737 62.5389 42.1737C62.2937 42.1737 62.0886 42.1353 61.9466 42.0968C61.4821 43.7624 61.2511 44.5702 60.8769 45.6704C60.2704 47.463 60.193 47.6681 59.8201 48.6426C59.4072 47.5412 59.0071 46.4256 58.6329 45.2998C58.4278 44.6843 57.6393 42.1237 57.6277 42.0968C57.4484 42.1353 57.318 42.1737 57.06 42.1737C56.8303 42.1737 56.6599 42.1237 56.4935 42.0968C56.1064 43.6598 54.7399 47.4258 54.6108 47.772L54.2882 48.6042L54.0431 47.8874Z" fill="#505967"/>
<path d="M67.0514 47.3103C66.6514 47.3372 66.2656 47.3616 65.8643 47.3616C65.4139 47.3616 64.9752 47.3231 64.5249 47.3103L65.8385 44.1598L67.0514 47.3103ZM68.507 50.8839C68.7405 50.8711 69.1018 50.8083 69.4618 50.8083C69.8232 50.8083 70.2748 50.8711 70.4671 50.8839C69.8877 49.6414 69.036 47.7065 68.5457 46.5923C68.0811 45.5177 67.3082 43.7239 66.6901 41.9685C66.5482 42.007 66.4191 42.0339 66.2772 42.0339C66.1236 42.0339 65.9933 42.007 65.8514 41.9685C65.543 43.0187 64.7945 44.6843 63.4926 47.5809L61.997 50.8839C62.179 50.8583 62.3583 50.8083 62.5777 50.8083C62.7841 50.8083 63.028 50.8583 63.1971 50.8839C63.4022 50.1543 63.8164 49.0901 64.2281 48.1053C64.7429 48.0784 65.2591 48.054 65.7739 48.054C66.3288 48.054 66.8695 48.0784 67.4243 48.1053L67.9663 49.4632L68.507 50.8839Z" fill="#505967"/>
<path d="M73.9187 47.4511C73.9187 47.337 73.9961 47.1959 74.0864 47.0408C74.6284 46.1189 75.1303 45.1572 75.711 44.2353C75.9033 43.9275 76.8452 42.4427 77.0401 42.0965C76.8968 42.1478 76.7549 42.1747 76.4981 42.1747C76.2129 42.1747 75.9549 42.1349 75.7484 42.0965C74.8206 44.1211 74.6142 44.5558 73.5199 46.4266C72.4244 44.5186 71.9341 43.5069 71.2631 42.0965C70.8901 42.1606 70.5146 42.1747 70.2062 42.1747C69.9224 42.1747 69.6256 42.1478 69.1494 42.0965C69.8191 43.2107 70.9159 44.979 71.5727 46.106L72.3328 47.4126C72.3328 48.2076 72.2941 49.8848 72.2566 50.8837C72.5005 50.858 72.8618 50.808 73.1186 50.808C73.4154 50.808 73.7135 50.858 74.0103 50.8837C73.9574 49.6925 73.9187 49.0013 73.9187 47.9243V47.4511Z" fill="#505967"/>
<path d="M77.7827 48.9635C77.7195 49.5777 77.7053 49.7444 77.4859 50.4099C77.9504 50.6407 78.7892 51.0638 79.8963 51.0638C82.2564 51.0638 83.1713 49.5662 83.1713 48.2583C83.1713 47.8993 83.081 47.1428 82.5403 46.567C82.1661 46.1567 81.779 46.0169 80.7867 45.6323C79.6537 45.1963 78.9944 44.9399 78.9944 44.0051C78.9944 43.2499 79.4976 42.6216 80.5157 42.6216C81.3274 42.6216 82.0125 43.0063 82.2048 43.7358H82.3855C82.5016 43.2499 82.5274 43.1473 82.7855 42.519C82.1532 42.2382 81.5854 41.9946 80.6447 41.9946C78.3105 41.9946 77.6407 43.4294 77.6407 44.5552C77.6407 45.6195 78.0162 46.2734 79.2653 46.8235C79.6253 46.9773 80.2331 47.2069 80.5931 47.362C80.8383 47.4633 81.6512 47.8211 81.6512 48.834C81.6512 49.7572 80.979 50.4368 79.9621 50.4368C79.2008 50.4368 78.5556 50.2445 77.9633 48.9635H77.7827Z" fill="#505967"/>
<path d="M6.16441 25.2889C6.16441 15.6054 11.3853 12.9909 15.3313 12.9909C21.6735 12.9909 24.4194 18.2186 24.4194 23.7912C24.4194 26.9802 24.0323 29.978 22.4464 32.4002C20.8605 34.8198 18.232 36.2815 15.3687 36.2815C8.21483 36.2815 6.16441 29.5164 6.16441 25.2889ZM25.4246 45.0828C26.5847 44.275 28.4028 43.2761 29.7177 42.6991L20.978 37.3176C26.3524 35.4353 29.7177 30.6692 29.7177 24.1746C29.7177 14.9528 22.64 11.0317 15.4074 11.0317C7.59673 11.0317 0.866119 15.3362 0.866119 25.0978C0.866119 27.1712 1.33066 31.0923 4.57854 34.3595C7.94385 37.742 11.9272 38.2408 15.2926 38.2408C15.7171 38.2408 16.1416 38.2408 16.5687 38.2036L25.4246 45.0828Z" fill="#5C0632"/>
<path d="M47.76 26.9804C46.5599 27.0586 45.4012 27.1355 44.1998 27.1355C42.8475 27.1355 41.5326 27.0188 40.1803 26.9804L44.125 17.5264L47.76 26.9804ZM52.1305 37.7025C52.826 37.664 53.9099 37.4717 54.9913 37.4717C56.0765 37.4717 57.4275 37.664 58.0094 37.7025C56.2687 33.975 53.7164 28.1716 52.2453 24.8275C50.853 21.6001 48.5329 16.2185 46.6773 10.9537C46.2515 11.0703 45.8644 11.1473 45.4399 11.1473C44.9753 11.1473 44.5882 11.0703 44.1637 10.9537C43.2346 14.1067 40.9919 19.1023 37.086 27.7869L32.598 37.7025C33.14 37.6268 33.6819 37.4717 34.3387 37.4717C34.9568 37.4717 35.6936 37.6268 36.1956 37.7025C36.8137 35.5111 38.0537 32.3222 39.2899 29.3628C40.8358 29.2871 42.383 29.2102 43.9301 29.2102C45.5934 29.2102 47.218 29.2871 48.8826 29.3628L50.5046 33.4377L52.1305 37.7025Z" fill="#5C0632"/>
<path d="M69.2922 18.2185C69.2922 16.758 69.3297 15.2976 69.3684 13.9128C72.0369 13.9128 74.7841 13.9525 77.0655 14.182C76.9493 13.5678 76.8719 13.2229 76.8719 12.7998C76.8719 12.492 76.9493 11.9907 77.0655 11.3393C73.3531 11.5304 69.949 11.5688 66.7386 11.5688C63.7604 11.5688 59.4673 11.5304 56.4117 11.3393C56.5291 11.8009 56.6052 12.2997 56.6052 12.7613C56.6052 13.2229 56.5291 13.7217 56.4117 14.182C58.386 13.991 62.0984 13.9128 62.4455 13.9128H64.3798C64.4185 15.413 64.4572 16.758 64.4572 18.1801L64.4959 28.9009C64.4959 31.8231 64.2649 34.7825 64.1088 37.7021C65.5011 37.5496 66.0818 37.4726 66.7386 37.4726C67.2031 37.4726 68.4406 37.588 69.5632 37.7021C69.4458 36.6276 69.2922 35.3582 69.2922 32.4386V18.2185Z" fill="#5C0632"/>
<path d="M90.8189 26.9804C89.6201 27.0586 88.46 27.1355 87.2613 27.1355C85.9064 27.1355 84.5928 27.0188 83.2379 26.9804L87.1839 17.5264L90.8189 26.9804ZM95.1894 37.7025C95.8849 37.664 96.9688 37.4717 98.0514 37.4717C99.1341 37.4717 100.488 37.664 101.068 37.7025C99.3276 33.975 96.7752 28.1716 95.3055 24.8275C93.9132 21.6001 91.5918 16.2185 89.7362 10.9537C89.3104 11.0703 88.9233 11.1473 88.4988 11.1473C88.0342 11.1473 87.6471 11.0703 87.2213 10.9537C86.2948 14.1067 84.0508 19.1023 80.1436 27.7869L75.6582 37.7025C76.1989 37.6268 76.7421 37.4717 77.3989 37.4717C78.017 37.4717 78.7512 37.6268 79.2558 37.7025C79.8752 35.5111 81.1113 32.3222 82.3488 29.3628C83.8947 29.2871 85.4419 29.2102 86.9903 29.2102C88.6536 29.2102 90.2782 29.2871 91.9402 29.3628L93.5648 33.4377L95.1894 37.7025Z" fill="#5C0632"/>
<path d="M116.644 24.6376C120.163 23.9837 123.374 21.7936 123.374 17.5263C123.374 15.912 122.754 14.3361 121.593 13.2231C119.931 11.6472 118.035 11.3395 115.522 11.3395C114.631 11.3395 110.146 11.5305 109.14 11.5305C107.167 11.5305 106.161 11.4151 105.274 11.3395C105.543 16.2966 105.543 16.8339 105.543 21.868C105.543 29.287 105.505 30.1307 105.196 37.7023C106.047 37.5882 106.974 37.4715 107.863 37.4715C108.83 37.4715 109.682 37.6267 110.455 37.7023C110.455 36.7022 110.301 31.7463 110.301 30.6308V25.1736H111.23C113.318 28.0945 115.717 31.4771 117.688 34.5134C118.268 35.3981 119.118 36.8202 119.698 37.7023C120.859 37.5497 121.323 37.4715 122.831 37.4715C124.223 37.4715 125.191 37.5882 126.273 37.7023C123.837 34.6673 122.794 33.3222 119.738 29.0562C119.157 28.2484 118.306 26.9802 117.726 26.1737L116.644 24.6376ZM110.301 13.4141C110.88 13.377 112.311 13.2231 113.047 13.2231C114.323 13.2231 115.598 13.4142 116.644 14.1822C117.997 15.1824 118.268 16.5646 118.268 18.1802C118.268 20.678 116.837 23.4836 112.969 23.4836C111.963 23.4836 111.035 23.4054 110.301 23.3695V13.4141Z" fill="#5C0632"/>
<path d="M174.459 24.7107C174.459 24.9581 170.958 25.1902 165.96 25.3851C165.077 24.8876 164.408 24.3875 163.917 23.9567C169.978 24.1696 174.459 24.4324 174.459 24.7107Z" fill="#747F8A"/>
<path d="M170.868 16.3264C170.868 16.5328 167.934 16.7264 163.739 16.8931C164.34 16.5444 164.96 16.193 165.61 15.8404C168.779 15.9853 170.868 16.1533 170.868 16.3264Z" fill="#747F8A"/>
<path d="M139.611 34.3638C137.669 34.3868 135.966 34.3958 134.635 34.3958C132.72 34.3958 131.169 33.8098 131.169 33.0828C131.169 32.3596 132.72 31.7736 134.635 31.7736C136.331 31.7736 138.628 31.7916 141.263 31.8249C140.243 33.2867 139.759 34.165 139.714 34.2201C139.684 34.2625 139.647 34.3125 139.611 34.3638Z" fill="#747F8A"/>
<path d="M140.657 36.1197C141.297 36.8877 141.911 37.534 142.733 38.2405C142.733 38.2405 143.043 38.6803 143.984 38.3033C144.941 37.9161 145.753 37.3891 146.668 36.1697C149.339 36.2146 152.171 36.2735 154.96 36.3364C155.189 36.6685 155.655 37.3557 156.229 38.2033C148.456 38.4033 140.02 38.5226 135.698 38.5226C133.898 38.5226 132.437 37.9674 132.437 37.2878C132.437 36.6044 133.898 36.053 135.698 36.053C137.014 36.053 138.71 36.062 140.651 36.0838C140.649 36.1017 140.657 36.1197 140.657 36.1197Z" fill="#747F8A"/>
<path d="M137.65 42.5613C136.053 42.5613 134.758 42.0728 134.758 41.4702C134.758 40.8662 136.053 40.3764 137.65 40.3764C141.876 40.3764 150.54 40.5046 157.959 40.7136C158.317 41.2227 158.674 41.7292 159.014 42.1946C151.375 42.4177 142.076 42.5613 137.65 42.5613Z" fill="#747F8A"/>
<path d="M162.293 46.0642C156.061 46.336 145.347 46.5181 140.896 46.5181C139.643 46.5181 138.625 46.1296 138.625 45.659C138.625 45.1846 139.643 44.7986 140.896 44.7986C145.154 44.7986 155.154 44.9653 161.466 45.2154C161.751 45.5193 162.029 45.8052 162.293 46.0642Z" fill="#747F8A"/>
<path d="M146.036 48.3865C149.712 48.3865 160.904 48.6622 160.904 48.9956C160.904 49.3341 149.711 49.6072 146.036 49.6072C145.32 49.6072 144.741 49.3341 144.741 48.9956C144.741 48.6622 145.32 48.3865 146.036 48.3865Z" fill="#747F8A"/>
<path d="M146.077 25.9005C141.449 25.9787 137.303 26.0223 134.635 26.0223C132.721 26.0223 131.169 25.4363 131.169 24.7105C131.169 23.9861 132.721 23.3975 134.635 23.3975C137.734 23.3975 142.828 23.4565 148.349 23.5604C147.528 24.3669 146.77 25.1516 146.077 25.9005Z" fill="#747F8A"/>
<path d="M168.773 20.0358C171.484 20.182 173.19 20.3423 173.19 20.509C173.19 20.6923 171.125 20.868 167.93 21.0244C168.613 20.5141 168.763 20.0691 168.773 20.0358Z" fill="#747F8A"/>
<path d="M135.699 21.7417C133.897 21.7417 132.437 21.1903 132.437 20.5082C132.437 19.8273 133.897 19.2734 135.699 19.2734C139.393 19.2734 146.094 19.3631 152.816 19.5106C151.991 20.2017 151.209 20.8852 150.471 21.5558C144.571 21.6737 138.963 21.7417 135.699 21.7417Z" fill="#747F8A"/>
<path d="M155.787 17.1399C148.915 17.313 141.469 17.4194 137.65 17.4194C136.052 17.4194 134.759 16.9309 134.759 16.327C134.759 15.723 136.052 15.2319 137.65 15.2319C141.865 15.2319 150.508 15.3627 157.918 15.5704C157.549 15.8372 157.177 16.1039 156.8 16.3834C156.457 16.6373 156.119 16.8873 155.787 17.1399Z" fill="#747F8A"/>
<path d="M140.895 12.9957C139.642 12.9957 138.624 12.6123 138.624 12.1366C138.624 11.6621 139.642 11.2762 140.895 11.2762C145.622 11.2762 157.411 11.4839 163.398 11.7801C163.016 12.0289 162.634 12.2866 162.248 12.5456C156.008 12.8136 145.338 12.9957 140.895 12.9957Z" fill="#747F8A"/>
<path d="M134.278 30.2324C132.329 30.2324 130.747 29.6361 130.747 28.8963C130.747 28.1615 132.329 27.5627 134.278 27.5627C136.721 27.5627 140.376 27.5986 144.511 27.6615C143.734 28.5693 143.059 29.4104 142.481 30.1644C139.189 30.208 136.312 30.2324 134.278 30.2324Z" fill="#747F8A"/>
<path d="M144.741 8.79883C144.741 8.46161 145.321 8.18849 146.037 8.18849C149.712 8.18849 160.904 8.46161 160.904 8.79883C160.904 9.1335 149.713 9.4079 146.037 9.4079C145.321 9.4079 144.741 9.1335 144.741 8.79883Z" fill="#747F8A"/>
<path d="M174.825 27.9087C174.851 28.5742 174.847 29.2346 174.814 29.8821C168.302 30.1385 162.128 30.5283 162.128 30.9669C162.128 31.3977 168.164 31.7836 174.601 32.0388C174.487 32.7774 174.341 33.5018 174.163 34.2122C167.818 34.4699 161.93 34.8495 161.93 35.2765C161.93 35.6881 167.428 36.0586 173.514 36.3164C173.236 37.0883 172.919 37.8384 172.565 38.5564C167.337 38.8065 163.017 39.1399 163.017 39.504C163.017 39.8438 166.791 40.1579 171.549 40.4003C171.282 40.8324 171.003 41.2555 170.712 41.6556C170.402 42.0916 170.065 42.5237 169.709 42.9481C166.735 43.1725 164.693 43.4277 164.693 43.7008C164.693 43.9354 166.155 44.1547 168.408 44.3509C167.178 45.56 165.725 46.6897 164.013 47.6757C164.013 47.6757 161.996 45.9498 160.332 43.9341C158.848 42.1364 155.699 37.3973 154.959 36.3369C154.217 35.2765 153.729 34.9662 152.862 35.2739C151.699 35.6829 150.348 35.8881 149.933 35.8881C149.517 35.8881 149.289 35.7278 149.985 35.4534C150.68 35.1752 153.424 33.8878 154.775 31.2272C156.293 28.2306 154.959 24.0928 154.959 24.0928C154.449 26.3046 153.29 27.1304 153.29 27.1304C153.664 25.0762 153.257 23.2144 152.236 21.9078L151.667 24.5082C151.667 24.5082 151.311 24.4903 150.429 25.2263C149.549 25.9636 149.307 27.0381 149.307 27.0381C150 27.315 150.833 26.6239 150.833 26.6239C149.769 30.5822 148.242 33.8045 147.129 35.5085C146.016 37.2126 145.099 37.855 143.984 38.3051C143.043 38.6795 142.734 38.2397 142.734 38.2397C141.912 37.5345 141.297 36.8882 140.657 36.1202C140.657 36.1202 140.606 36.0304 140.779 36.033C141.237 36.0394 142.052 35.2611 142.23 34.938C142.434 34.5674 142.412 34.284 142.31 34.2648C142.21 34.2481 142.035 34.5417 141.152 35.0957C140.273 35.6483 139.869 35.2649 139.576 34.9572C139.349 34.7123 139.572 34.4097 139.714 34.2199C139.848 34.0506 144.497 25.4353 156.8 16.3839C172.922 4.52195 183.218 1.31891 183.808 1.08811C184.197 0.935524 184.833 0.734215 184.978 0.881672C185.138 1.04836 185.217 1.18171 185.195 1.37533C185.174 1.56767 185.071 1.6664 184.325 1.99337C178.136 4.70274 170.912 9.21879 166.807 11.8474C161.759 14.2913 156.939 17.7816 156.764 17.8649C156.375 18.1047 156.662 18.4535 156.897 18.3073C165.421 12.6731 175.415 8.8354 186.459 5.69135C186.987 5.54261 187.276 5.54261 187.364 5.65801C187.463 5.78624 187.506 5.93241 187.521 6.09397C187.535 6.29528 187.368 6.40171 186.915 6.57738C175.05 10.9575 166.305 15.0261 160.68 18.7869C160.68 18.7869 160.098 19.1356 160.09 19.5395C160.088 19.6934 160.403 19.7114 160.403 19.7114C163.218 19.7614 166.982 19.9255 168.773 20.0294C168.773 20.0294 168.518 20.9308 166.803 21.6565C165.479 22.2181 164.253 22.1284 163.04 22.1386C162.771 22.1335 162.542 22.4041 162.758 22.6926C162.866 22.8362 165.447 26.965 174.825 27.9087Z" fill="#5C0632"/>
<path d="M88.8458 49.4999H87.2561C87.2561 49.4999 87.0418 48.528 87.6174 48.1561C88.1954 47.7791 88.8458 47.4894 88.8458 47.4894V49.4999ZM96.3894 45.8609C96.3894 45.8609 95.4229 46.4123 94.8112 46.9534C94.2035 47.4894 94.9364 47.6932 94.9364 47.6932V49.4999H90.3233V43.1772C90.3233 43.1772 88.6419 44.7133 88.4845 44.9172C88.3219 45.1352 88.8845 45.3326 88.8845 45.3326L88.789 45.9314C88.789 45.9314 88.1193 46.2764 87.3064 46.8226C86.4986 47.3624 85.8999 48.051 85.8999 48.528C85.8999 49.0062 85.696 50.8834 85.696 50.8834H96.3894V45.8609ZM86.8393 43.549C87.3657 43.549 87.7374 43.3426 87.7374 42.9259C87.7374 42.5079 87.4909 42.2168 86.8393 42.2168C86.2599 42.2168 86.105 42.4681 86.105 42.9259C86.105 43.3875 86.3063 43.549 86.8393 43.549ZM88.8058 43.549C89.3374 43.549 89.6974 43.3426 89.6974 42.9259C89.6974 42.5079 89.4536 42.2168 88.8058 42.2168C88.2238 42.2168 88.0716 42.4681 88.0716 42.9259C88.0716 43.3875 88.2716 43.549 88.8058 43.549ZM91.7853 51.4271C91.2098 51.4271 91.0511 51.672 91.0511 52.1323C91.0511 52.5888 91.2549 52.7555 91.7853 52.7555C92.3118 52.7555 92.6847 52.5478 92.6847 52.1323C92.6847 51.7131 92.4421 51.4271 91.7853 51.4271ZM93.8292 51.4271C93.2537 51.4271 93.0963 51.672 93.0963 52.1323C93.0963 52.5888 93.3053 52.7555 93.8292 52.7555C94.3635 52.7555 94.7299 52.5478 94.7299 52.1323C94.7299 51.7131 94.4886 51.4271 93.8292 51.4271ZM116.872 43.4247C117.402 43.4247 117.774 43.2233 117.774 42.8066C117.774 42.3925 117.528 42.0963 116.872 42.0963C116.297 42.0963 116.141 42.3476 116.141 42.8066C116.141 43.2657 116.346 43.4247 116.872 43.4247ZM118.914 43.4247C119.441 43.4247 119.81 43.2233 119.81 42.8066C119.81 42.3925 119.565 42.0963 118.914 42.0963C118.336 42.0963 118.183 42.3476 118.183 42.8066C118.183 43.2657 118.38 43.4247 118.914 43.4247ZM124.553 43.5965C124.265 43.844 124.349 44.1401 124.714 44.0991V50.8924H126.229V42.4361C126.229 42.4361 124.836 43.3503 124.553 43.5965ZM118.465 47.406H117.484C117.484 46.8713 118.465 46.5751 118.465 46.5751V47.406ZM112.009 48.528C112.009 48.7742 111.998 49.1755 111.986 49.4999H103.427V48.0048C103.65 47.4291 104.027 47.3624 104.61 47.3624H110.867C112.218 47.3624 112.009 48.0689 112.009 48.528ZM122.019 44.0914V49.4999H119.981V44.5889C119.981 44.5889 119.565 44.7479 118.993 44.9992C118.426 45.2544 116.377 46.0815 116.377 47.1996V48.4921H118.465V49.4999H113.513C113.517 49.2627 113.522 48.9139 113.522 48.4023C113.522 46.7905 112.14 45.9135 110.91 45.9135H105.185C104.182 45.9135 103.698 46.1545 103.427 46.4302V42.2668C103.427 42.2668 102.533 42.8912 101.876 43.3875C101.221 43.8837 101.876 44.2171 101.876 44.2171V49.4999H99.9998L99.9598 44.9659C99.9598 44.9659 98.654 45.9135 98.2798 46.202C97.9146 46.4892 98.1172 46.7457 98.5262 46.7457C98.5262 46.7457 98.4514 50.0936 98.4514 50.8834C98.4514 51.6784 97.7894 52.5863 96.3997 52.1734C96.3997 52.1734 95.9584 52.258 96.3248 52.5888C96.69 52.9184 97.1313 53.1697 97.6255 53.1697C98.1172 53.1697 99.9185 52.8324 99.9185 50.8834H123.529V42.4309C123.529 42.4309 122.139 43.3426 121.852 43.5901C121.565 43.8375 121.649 44.135 122.019 44.0914Z" fill="#5C0632"/>
</svg>
