<svg width="27" height="25" fill="none" xmlns="http://www.w3.org/2000/svg"><path fill-rule="evenodd" clip-rule="evenodd" d="M2.074 22.787a1.892 1.892 0 0 1-1.892-1.892v-9.461A1.892 1.892 0 0 1 2.074 9.54h8.515a.946.946 0 0 1 .946.946v11.354a.946.946 0 0 1-.946.946H2.074Z" fill="#fff"/><path fill-rule="evenodd" clip-rule="evenodd" d="M10.563 24.12a4.73 4.73 0 0 1-2.034-.46l-.378-.18a2.838 2.838 0 0 1-1.616-2.563V10.62c-.001-.485.123-.963.36-1.387l3.931-7.02a3.075 3.075 0 0 1 5.76 1.502v4.46h6.212a3.785 3.785 0 0 1 3.74 4.371l-1.185 7.575a4.73 4.73 0 0 1-4.674 3.998H10.563Z" fill="#FFF8FD"/></svg>