<svg width="78" height="78" viewBox="0 0 78 78" fill="none" xmlns="http://www.w3.org/2000/svg">
<path d="M67.9306 19.4722H53.4931V17.0659C53.4931 15.1514 52.7325 13.3153 51.3787 11.9615C50.025 10.6077 48.1889 9.84717 46.2743 9.84717H31.8368C29.9223 9.84717 28.0862 10.6077 26.7324 11.9615C25.3786 13.3153 24.6181 15.1514 24.6181 17.0659V19.4722H10.1806C8.90422 19.4722 7.68014 19.9792 6.77762 20.8817C5.8751 21.7842 5.36807 23.0083 5.36807 24.2847V32.7065C5.36807 33.0256 5.49483 33.3317 5.72046 33.5573C5.94609 33.7829 6.25211 33.9097 6.5712 33.9097H19.8056V29.1784C19.7957 28.5564 20.0221 27.9537 20.439 27.4921C20.856 27.0305 21.4326 26.7441 22.0524 26.6909C22.3816 26.6691 22.7117 26.7151 23.0223 26.8262C23.3329 26.9373 23.6173 27.1111 23.8579 27.3368C24.0985 27.5624 24.2902 27.8351 24.4209 28.138C24.5517 28.4408 24.6188 28.7673 24.6181 29.0972V33.9097H53.4931V29.1784C53.4832 28.5564 53.7096 27.9537 54.1266 27.4921C54.5435 27.0305 55.1201 26.7441 55.7399 26.6909C56.0691 26.6691 56.3992 26.7151 56.7098 26.8262C57.0204 26.9373 57.3048 27.1111 57.5454 27.3368C57.786 27.5624 57.9776 27.8351 58.1084 28.138C58.2392 28.4408 58.3063 28.7673 58.3056 29.0972V33.9097H71.5399C71.859 33.9097 72.1651 33.7829 72.3907 33.5573C72.6163 33.3317 72.7431 33.0256 72.7431 32.7065V24.2847C72.7431 23.0083 72.236 21.7842 71.3335 20.8817C70.431 19.9792 69.2069 19.4722 67.9306 19.4722ZM48.6806 19.4722H29.4306V17.0659C29.4306 16.4277 29.6841 15.8157 30.1353 15.3644C30.5866 14.9132 31.1986 14.6597 31.8368 14.6597H46.2743C46.9125 14.6597 47.5245 14.9132 47.9758 15.3644C48.4271 15.8157 48.6806 16.4277 48.6806 17.0659V19.4722ZM72.7431 39.9253V57.9722C72.7431 59.2485 72.236 60.4726 71.3335 61.3751C70.431 62.2776 69.2069 62.7847 67.9306 62.7847H10.1806C8.90422 62.7847 7.68014 62.2776 6.77762 61.3751C5.8751 60.4726 5.36807 59.2485 5.36807 57.9722V39.9253C5.36807 39.6062 5.49483 39.3002 5.72046 39.0746C5.94609 38.8489 6.25211 38.7222 6.5712 38.7222H19.8056V43.5347C19.8048 43.8645 19.872 44.191 20.0027 44.4939C20.1335 44.7967 20.3251 45.0694 20.5657 45.2951C20.8063 45.5207 21.0908 45.6945 21.4014 45.8056C21.712 45.9167 22.0421 45.9628 22.3712 45.9409C22.991 45.8877 23.5676 45.6014 23.9846 45.1397C24.4016 44.6781 24.628 44.0755 24.6181 43.4535V38.7222H53.4931V43.5347C53.4923 43.8645 53.5595 44.191 53.6902 44.4939C53.821 44.7967 54.0126 45.0694 54.2532 45.2951C54.4938 45.5207 54.7783 45.6945 55.0889 45.8056C55.3995 45.9167 55.7296 45.9628 56.0587 45.9409C56.6775 45.8878 57.2532 45.6023 57.67 45.1419C58.0869 44.6816 58.3139 44.0805 58.3056 43.4595V38.7222H71.5399C71.859 38.7222 72.1651 38.8489 72.3907 39.0746C72.6163 39.3002 72.7431 39.6062 72.7431 39.9253Z" fill="#FFF8FD"/>
</svg>
