<svg width="50" height="54" viewBox="0 0 50 54" fill="none" xmlns="http://www.w3.org/2000/svg">
<path fill-rule="evenodd" clip-rule="evenodd" d="M5.10515 15.2896C5.0591 15.3958 5.16683 15.0646 5.19809 14.9529L5.31892 14.508C6.57661 9.95174 7.83008 5.39251 9.08439 0.830322L49.4755 0.912794L4.8373 37.2606L25.2363 12.6539L9.91497 12.6949C9.62938 12.6957 9.34801 12.6911 9.06242 12.7156C7.24749 12.87 5.67126 13.9747 5.10515 15.2896Z" fill="#636463"/>
<path d="M5.10515 15.2896C5.0591 15.3958 5.16683 15.0646 5.19809 14.9529L5.31892 14.508C6.57661 9.95174 7.83008 5.39251 9.08439 0.830322L49.4755 0.912794L4.8373 37.2606L25.2363 12.6539L9.91497 12.6949C9.62938 12.6957 9.34801 12.6911 9.06242 12.7156C7.24749 12.87 5.67126 13.9747 5.10515 15.2896Z" stroke="#FFFCFC" stroke-width="0.15886" stroke-miterlimit="22.926"/>
<path fill-rule="evenodd" clip-rule="evenodd" d="M47.2846 25.7505C47.3298 25.6443 46.0645 33.4969 43.83 41.6139L1.67595 41.8494L47.203 4.93787L26.799 29.7755L42.1232 29.7311C42.4067 29.7311 42.6894 29.7379 42.9737 29.7117C44.7899 29.5564 46.7193 27.0662 47.2846 25.7505Z" fill="#D22F14"/>
<path d="M47.2846 25.7505C47.3298 25.6443 46.0645 33.4969 43.83 41.6139L1.67595 41.8494L47.203 4.93787L26.799 29.7755L42.1232 29.7311C42.4067 29.7311 42.6894 29.7379 42.9737 29.7117C44.7899 29.5564 46.7193 27.0662 47.2846 25.7505Z" stroke="#FFFCFC" stroke-width="0.15886" stroke-miterlimit="22.926"/>
<path fill-rule="evenodd" clip-rule="evenodd" d="M7.28931 53.1692H0.117031L5.0743 46.4272H1.78537L2.02575 44.5655H8.85752L3.90997 51.2939H7.52843L7.28931 53.1692ZM8.64375 53.1692H13.6158L13.8608 51.2407H11.0459L11.2322 49.7904H13.8874L14.1236 47.9435H11.4688L11.6589 46.4509H14.4738L14.7151 44.5655H9.74344L8.64375 53.1692ZM15.0784 53.1692L16.1789 44.5655H18.3132L20.8126 48.9902C20.8607 49.0795 20.9321 49.2605 21.0352 49.5333C21.1353 49.8073 21.2401 50.1292 21.355 50.5064C21.3559 50.1512 21.3647 49.8348 21.3795 49.554C21.3943 49.2761 21.4159 49.0296 21.4454 48.8147L21.9879 44.5659H24.1117L23.0111 53.1697H20.8865L18.391 48.7255C18.339 48.635 18.2634 48.4544 18.1633 48.1833C18.064 47.9092 17.9584 47.5882 17.8473 47.2219C17.8435 47.5823 17.8346 47.9016 17.8219 48.1803C17.8063 48.4573 17.7835 48.7039 17.7543 48.9209L17.2127 53.1697L15.0784 53.1692ZM24.8066 53.1692L25.9063 44.5655H28.1416L27.0419 53.1692H24.8066ZM29.9954 53.1692L30.8348 46.5973H29.0144L29.2764 44.5655H35.1255L34.8644 46.5973H33.0469L32.2053 53.1692H29.9954ZM35.1056 53.1692H37.3172L37.7646 49.6665H40.713L40.2656 53.1692H42.4832L43.5829 44.5655H41.3653L40.9378 47.9088H37.9902L38.4169 44.5655H36.204L35.1056 53.1692Z" fill="#B2B3B2"/>
</svg>
